<svg width="49" height="67" viewBox="0 0 49 67" fill="none" xmlns="http://www.w3.org/2000/svg">
<circle cx="7.91674" cy="4.22222" r="4.22222" fill="#323232"/>
<circle cx="4.22222" cy="11.0833" r="4.22222" fill="#323232"/>
<circle cx="11.6111" cy="11.0833" r="4.22222" fill="#323232"/>
<path d="M6.33331 5.80557H9.49997C9.49997 5.80557 8.70831 9.48467 8.70831 11.875C8.70831 14.2654 9.49997 17.9445 9.49997 17.9445H6.33331C6.33331 17.9445 7.12497 14.2654 7.12497 11.875C7.12497 9.48467 6.33331 5.80557 6.33331 5.80557Z" fill="#323232"/>
<circle cx="40.9166" cy="62.7222" r="4.22222" transform="rotate(-180 40.9166 62.7222)" fill="#323232"/>
<circle cx="44.6111" cy="55.8611" r="4.22222" transform="rotate(-180 44.6111 55.8611)" fill="#323232"/>
<circle cx="37.2222" cy="55.8611" r="4.22222" transform="rotate(-180 37.2222 55.8611)" fill="#323232"/>
<path d="M42.5 61.1389H39.3333C39.3333 61.1389 40.125 57.4598 40.125 55.0694C40.125 52.6791 39.3333 49 39.3333 49H42.5C42.5 49 41.7083 52.6791 41.7083 55.0694C41.7083 57.4598 42.5 61.1389 42.5 61.1389Z" fill="#323232"/>
</svg>
