<svg width="49" height="65" viewBox="0 0 49 65" fill="none" xmlns="http://www.w3.org/2000/svg">
<path d="M3.56008 0C7.12031 -1.73744e-10 7.12031 3.20414 7.12031 3.20414C7.12031 3.20414 7.12013 0 10.6804 0C14.2406 0 14.2406 3.20414 14.2406 3.20414C14.2406 3.20414 14.2406 6.40828 10.6804 9.61242C7.12015 12.8166 7.12031 16.0207 7.12031 16.0207C7.12031 16.0207 7.12016 12.8166 3.56008 9.61242C0 6.40828 0 3.20414 0 3.20414C0 3.20414 -0.000152997 1.73743e-10 3.56008 0Z" fill="#FA2222"/>
<path d="M44.6805 64.0207C41.1203 64.0207 41.1203 60.8166 41.1203 60.8166C41.1203 60.8166 41.1205 64.0207 37.5602 64.0207C34 64.0207 34 60.8166 34 60.8166C34 60.8166 34 57.6124 37.5602 54.4083C41.1204 51.2041 41.1203 48 41.1203 48C41.1203 48 41.1204 51.2041 44.6805 54.4083C48.2406 57.6124 48.2406 60.8166 48.2406 60.8166C48.2406 60.8166 48.2408 64.0207 44.6805 64.0207Z" fill="#FA2222"/>
</svg>
