<svg width="47" height="67" viewBox="0 0 47 67" fill="none" xmlns="http://www.w3.org/2000/svg">
<path d="M5.80566 4.74997H8.97232C8.97232 4.74997 8.18066 8.42907 8.18066 10.8194C8.18066 13.2098 8.97232 16.8889 8.97232 16.8889H5.80566C5.80566 16.8889 6.59732 13.2098 6.59732 10.8194C6.59732 8.42907 5.80566 4.74997 5.80566 4.74997Z" fill="#323232"/>
<path d="M11.0834 14.7778C7.38888 14.7778 7.38888 11.8222 7.38888 11.8222C7.38888 11.8222 7.38907 14.7778 3.69452 14.7778C-3.71933e-05 14.7778 -9.53674e-06 11.8222 -9.53674e-06 11.8222C-9.53674e-06 11.8222 -1.04904e-05 8.86666 3.69452 5.9111C7.38904 2.95555 7.38888 -9.53674e-06 7.38888 -9.53674e-06C7.38888 -9.53674e-06 7.38904 2.95555 11.0834 5.9111C14.7778 8.86666 14.7778 11.8222 14.7778 11.8222C14.7778 11.8222 14.7779 14.7778 11.0834 14.7778Z" fill="#323232"/>
<path d="M40.9721 62.1389H37.8054C37.8054 62.1389 38.5971 58.4598 38.5971 56.0694C38.5971 53.6791 37.8054 50 37.8054 50H40.9721C40.9721 50 40.1804 53.6791 40.1804 56.0694C40.1804 58.4598 40.9721 62.1389 40.9721 62.1389Z" fill="#323232"/>
<path d="M35.6944 52.1111C39.3889 52.1111 39.3889 55.0666 39.3889 55.0666C39.3889 55.0666 39.3887 52.1111 43.0833 52.1111C46.7778 52.1111 46.7778 55.0666 46.7778 55.0666C46.7778 55.0666 46.7778 58.0222 43.0833 60.9778C39.3887 63.9333 39.3889 66.8889 39.3889 66.8889C39.3889 66.8889 39.3887 63.9333 35.6944 60.9778C32 58.0222 32 55.0666 32 55.0666C32 55.0666 31.9998 52.1111 35.6944 52.1111Z" fill="#323232"/>
</svg>
