<svg width="43" height="63" viewBox="0 0 43 63" fill="none" xmlns="http://www.w3.org/2000/svg">
<rect x="0.0343018" y="0.536957" width="42.7219" height="62.1409" fill="#99C0FF"/>
<mask id="mask0_6_2" style="mask-type:alpha" maskUnits="userSpaceOnUse" x="0" y="1" width="42" height="61">
<rect x="0.5" y="1.5" width="41" height="60" fill="#001433" stroke="#003A97"/>
</mask>
<g mask="url(#mask0_6_2)">
<rect x="0.438008" width="3.93064" height="3.93064" transform="matrix(0.438008 -0.898971 0.438008 0.898971 22.6746 7.09476)" fill="#CCE0FF" stroke="#003A97"/>
<rect x="0.438008" width="3.93064" height="3.93064" transform="matrix(0.438008 -0.898971 0.438008 0.898971 22.6746 19.6317)" fill="#CCE0FF" stroke="#003A97"/>
<rect x="0.438008" width="3.93064" height="3.93064" transform="matrix(0.438008 -0.898971 0.438008 0.898971 22.6746 32.1688)" fill="#CCE0FF" stroke="#003A97"/>
<rect x="0.438008" width="3.93064" height="3.93064" transform="matrix(0.438008 -0.898971 0.438008 0.898971 22.6746 44.7058)" fill="#CCE0FF" stroke="#003A97"/>
<rect x="0.438008" width="3.93064" height="3.93064" transform="matrix(0.438008 -0.898971 0.438008 0.898971 22.6746 57.2427)" fill="#CCE0FF" stroke="#003A97"/>
<rect x="0.438008" width="3.93064" height="3.93064" transform="matrix(0.438008 -0.898971 0.438008 0.898971 25.7289 0.826267)" fill="#CCE0FF" stroke="#003A97"/>
<rect x="0.438008" width="3.93064" height="3.93064" transform="matrix(0.438008 -0.898971 0.438008 0.898971 28.7831 7.09478)" fill="#CCE0FF" stroke="#003A97"/>
<rect x="0.438008" width="3.93064" height="3.93064" transform="matrix(0.438008 -0.898971 0.438008 0.898971 25.7289 13.3633)" fill="#CCE0FF" stroke="#003A97"/>
<rect x="0.438008" width="3.93064" height="3.93064" transform="matrix(0.438008 -0.898971 0.438008 0.898971 28.7831 19.6317)" fill="#CCE0FF" stroke="#003A97"/>
<rect x="0.438008" width="3.93064" height="3.93064" transform="matrix(0.438008 -0.898971 0.438008 0.898971 25.7289 25.9002)" fill="#CCE0FF" stroke="#003A97"/>
<rect x="0.438008" width="3.93064" height="3.93064" transform="matrix(0.438008 -0.898971 0.438008 0.898971 28.7831 32.1688)" fill="#CCE0FF" stroke="#003A97"/>
<rect x="0.438008" width="3.93064" height="3.93064" transform="matrix(0.438008 -0.898971 0.438008 0.898971 25.7289 38.4373)" fill="#CCE0FF" stroke="#003A97"/>
<rect x="0.438008" width="3.93064" height="3.93064" transform="matrix(0.438008 -0.898971 0.438008 0.898971 28.7831 44.7058)" fill="#CCE0FF" stroke="#003A97"/>
<rect x="0.438008" width="3.93064" height="3.93064" transform="matrix(0.438008 -0.898971 0.438008 0.898971 25.7289 50.9742)" fill="#CCE0FF" stroke="#003A97"/>
<rect x="0.438008" width="3.93064" height="3.93064" transform="matrix(0.438008 -0.898971 0.438008 0.898971 28.7831 57.2427)" fill="#CCE0FF" stroke="#003A97"/>
<rect x="0.438008" width="3.93064" height="3.93064" transform="matrix(0.438008 -0.898971 0.438008 0.898971 25.7289 63.5113)" fill="#CCE0FF" stroke="#003A97"/>
<rect x="0.438008" width="3.93064" height="3.93064" transform="matrix(0.438008 -0.898971 0.438008 0.898971 31.8374 0.826252)" fill="#CCE0FF" stroke="#003A97"/>
<rect x="0.438008" width="3.93064" height="3.93064" transform="matrix(0.438008 -0.898971 0.438008 0.898971 34.8916 7.09476)" fill="#CCE0FF" stroke="#003A97"/>
<rect x="0.438008" width="3.93064" height="3.93064" transform="matrix(0.438008 -0.898971 0.438008 0.898971 31.8374 13.3633)" fill="#CCE0FF" stroke="#003A97"/>
<rect x="0.438008" width="3.93064" height="3.93064" transform="matrix(0.438008 -0.898971 0.438008 0.898971 34.8916 19.6317)" fill="#CCE0FF" stroke="#003A97"/>
<rect x="0.438008" width="3.93064" height="3.93064" transform="matrix(0.438008 -0.898971 0.438008 0.898971 31.8374 25.9002)" fill="#CCE0FF" stroke="#003A97"/>
<rect x="0.438008" width="3.93064" height="3.93064" transform="matrix(0.438008 -0.898971 0.438008 0.898971 34.8916 32.1688)" fill="#CCE0FF" stroke="#003A97"/>
<rect x="0.438008" width="3.93064" height="3.93064" transform="matrix(0.438008 -0.898971 0.438008 0.898971 31.8374 38.4373)" fill="#CCE0FF" stroke="#003A97"/>
<rect x="0.438008" width="3.93064" height="3.93064" transform="matrix(0.438008 -0.898971 0.438008 0.898971 34.8916 44.7058)" fill="#CCE0FF" stroke="#003A97"/>
<rect x="0.438008" width="3.93064" height="3.93064" transform="matrix(0.438008 -0.898971 0.438008 0.898971 31.8374 50.9742)" fill="#CCE0FF" stroke="#003A97"/>
<rect x="0.438008" width="3.93064" height="3.93064" transform="matrix(0.438008 -0.898971 0.438008 0.898971 34.8916 57.2427)" fill="#CCE0FF" stroke="#003A97"/>
<rect x="0.438008" width="3.93064" height="3.93064" transform="matrix(0.438008 -0.898971 0.438008 0.898971 31.8374 63.5113)" fill="#CCE0FF" stroke="#003A97"/>
<rect x="0.438008" width="3.93064" height="3.93064" transform="matrix(0.438008 -0.898971 0.438008 0.898971 37.9458 0.826252)" fill="#CCE0FF" stroke="#003A97"/>
<rect x="0.438008" width="3.93064" height="3.93064" transform="matrix(0.438008 -0.898971 0.438008 0.898971 40.9999 7.09476)" fill="#CCE0FF" stroke="#003A97"/>
<rect x="0.438008" width="3.93064" height="3.93064" transform="matrix(0.438008 -0.898971 0.438008 0.898971 37.9458 13.3633)" fill="#CCE0FF" stroke="#003A97"/>
<rect x="0.438008" width="3.93064" height="3.93064" transform="matrix(0.438008 -0.898971 0.438008 0.898971 40.9999 19.6317)" fill="#CCE0FF" stroke="#003A97"/>
<rect x="0.438008" width="3.93064" height="3.93064" transform="matrix(0.438008 -0.898971 0.438008 0.898971 37.9458 25.9002)" fill="#CCE0FF" stroke="#003A97"/>
<rect x="0.438008" width="3.93064" height="3.93064" transform="matrix(0.438008 -0.898971 0.438008 0.898971 40.9999 32.1688)" fill="#CCE0FF" stroke="#003A97"/>
<rect x="0.438008" width="3.93064" height="3.93064" transform="matrix(0.438008 -0.898971 0.438008 0.898971 37.9458 38.4373)" fill="#CCE0FF" stroke="#003A97"/>
<rect x="0.438008" width="3.93064" height="3.93064" transform="matrix(0.438008 -0.898971 0.438008 0.898971 40.9999 44.7058)" fill="#CCE0FF" stroke="#003A97"/>
<rect x="0.438008" width="3.93064" height="3.93064" transform="matrix(0.438008 -0.898971 0.438008 0.898971 37.9458 50.9742)" fill="#CCE0FF" stroke="#003A97"/>
<rect x="0.438008" width="3.93064" height="3.93064" transform="matrix(0.438008 -0.898971 0.438008 0.898971 40.9999 57.2427)" fill="#CCE0FF" stroke="#003A97"/>
<rect x="0.438008" width="3.93064" height="3.93064" transform="matrix(0.438008 -0.898971 0.438008 0.898971 37.9458 63.5113)" fill="#CCE0FF" stroke="#003A97"/>
<rect x="0.438008" width="3.93064" height="3.93064" transform="matrix(0.438008 -0.898971 0.438008 0.898971 19.5769 0.826267)" fill="#CCE0FF" stroke="#003A97"/>
<rect x="0.438008" width="3.93064" height="3.93064" transform="matrix(0.438008 -0.898971 0.438008 0.898971 -1.80261 7.09476)" fill="#CCE0FF" stroke="#003A97"/>
<rect x="0.438008" width="3.93064" height="3.93064" transform="matrix(0.438008 -0.898971 0.438008 0.898971 19.5769 13.3633)" fill="#CCE0FF" stroke="#003A97"/>
<rect x="0.438008" width="3.93064" height="3.93064" transform="matrix(0.438008 -0.898971 0.438008 0.898971 -1.80261 19.6317)" fill="#CCE0FF" stroke="#003A97"/>
<rect x="0.438008" width="3.93064" height="3.93064" transform="matrix(0.438008 -0.898971 0.438008 0.898971 19.5769 25.9002)" fill="#CCE0FF" stroke="#003A97"/>
<rect x="0.438008" width="3.93064" height="3.93064" transform="matrix(0.438008 -0.898971 0.438008 0.898971 -1.80261 32.1688)" fill="#CCE0FF" stroke="#003A97"/>
<rect x="0.438008" width="3.93064" height="3.93064" transform="matrix(0.438008 -0.898971 0.438008 0.898971 19.5769 38.4373)" fill="#CCE0FF" stroke="#003A97"/>
<rect x="0.438008" width="3.93064" height="3.93064" transform="matrix(0.438008 -0.898971 0.438008 0.898971 -1.80261 44.7058)" fill="#CCE0FF" stroke="#003A97"/>
<rect x="0.438008" width="3.93064" height="3.93064" transform="matrix(0.438008 -0.898971 0.438008 0.898971 19.5769 50.9742)" fill="#CCE0FF" stroke="#003A97"/>
<rect x="0.438008" width="3.93064" height="3.93064" transform="matrix(0.438008 -0.898971 0.438008 0.898971 -1.80261 57.2427)" fill="#CCE0FF" stroke="#003A97"/>
<rect x="0.438008" width="3.93064" height="3.93064" transform="matrix(0.438008 -0.898971 0.438008 0.898971 19.5769 63.5113)" fill="#CCE0FF" stroke="#003A97"/>
<rect x="0.438008" width="3.93064" height="3.93064" transform="matrix(0.438008 -0.898971 0.438008 0.898971 1.25159 0.826267)" fill="#CCE0FF" stroke="#003A97"/>
<rect x="0.438008" width="3.93064" height="3.93064" transform="matrix(0.438008 -0.898971 0.438008 0.898971 4.30585 7.09478)" fill="#CCE0FF" stroke="#003A97"/>
<rect x="0.438008" width="3.93064" height="3.93064" transform="matrix(0.438008 -0.898971 0.438008 0.898971 1.25159 13.3633)" fill="#CCE0FF" stroke="#003A97"/>
<rect x="0.438008" width="3.93064" height="3.93064" transform="matrix(0.438008 -0.898971 0.438008 0.898971 4.30585 19.6317)" fill="#CCE0FF" stroke="#003A97"/>
<rect x="0.438008" width="3.93064" height="3.93064" transform="matrix(0.438008 -0.898971 0.438008 0.898971 1.25159 25.9002)" fill="#CCE0FF" stroke="#003A97"/>
<rect x="0.438008" width="3.93064" height="3.93064" transform="matrix(0.438008 -0.898971 0.438008 0.898971 4.30585 32.1688)" fill="#CCE0FF" stroke="#003A97"/>
<rect x="0.438008" width="3.93064" height="3.93064" transform="matrix(0.438008 -0.898971 0.438008 0.898971 1.25159 38.4373)" fill="#CCE0FF" stroke="#003A97"/>
<rect x="0.438008" width="3.93064" height="3.93064" transform="matrix(0.438008 -0.898971 0.438008 0.898971 4.30585 44.7058)" fill="#CCE0FF" stroke="#003A97"/>
<rect x="0.438008" width="3.93064" height="3.93064" transform="matrix(0.438008 -0.898971 0.438008 0.898971 1.25159 50.9742)" fill="#CCE0FF" stroke="#003A97"/>
<rect x="0.438008" width="3.93064" height="3.93064" transform="matrix(0.438008 -0.898971 0.438008 0.898971 4.30585 57.2427)" fill="#CCE0FF" stroke="#003A97"/>
<rect x="0.438008" width="3.93064" height="3.93064" transform="matrix(0.438008 -0.898971 0.438008 0.898971 1.25159 63.5113)" fill="#CCE0FF" stroke="#003A97"/>
<rect x="0.438008" width="3.93064" height="3.93064" transform="matrix(0.438008 -0.898971 0.438008 0.898971 7.36005 0.826252)" fill="#CCE0FF" stroke="#003A97"/>
<rect x="0.438008" width="3.93064" height="3.93064" transform="matrix(0.438008 -0.898971 0.438008 0.898971 10.4141 7.09476)" fill="#CCE0FF" stroke="#003A97"/>
<rect x="0.438008" width="3.93064" height="3.93064" transform="matrix(0.438008 -0.898971 0.438008 0.898971 7.36005 13.3633)" fill="#CCE0FF" stroke="#003A97"/>
<rect x="0.438008" width="3.93064" height="3.93064" transform="matrix(0.438008 -0.898971 0.438008 0.898971 10.4141 19.6317)" fill="#CCE0FF" stroke="#003A97"/>
<rect x="0.438008" width="3.93064" height="3.93064" transform="matrix(0.438008 -0.898971 0.438008 0.898971 7.36005 25.9002)" fill="#CCE0FF" stroke="#003A97"/>
<rect x="0.438008" width="3.93064" height="3.93064" transform="matrix(0.438008 -0.898971 0.438008 0.898971 10.4141 32.1688)" fill="#CCE0FF" stroke="#003A97"/>
<rect x="0.438008" width="3.93064" height="3.93064" transform="matrix(0.438008 -0.898971 0.438008 0.898971 7.36005 38.4373)" fill="#CCE0FF" stroke="#003A97"/>
<rect x="0.438008" width="3.93064" height="3.93064" transform="matrix(0.438008 -0.898971 0.438008 0.898971 10.4141 44.7058)" fill="#CCE0FF" stroke="#003A97"/>
<rect x="0.438008" width="3.93064" height="3.93064" transform="matrix(0.438008 -0.898971 0.438008 0.898971 7.36005 50.9742)" fill="#CCE0FF" stroke="#003A97"/>
<rect x="0.438008" width="3.93064" height="3.93064" transform="matrix(0.438008 -0.898971 0.438008 0.898971 10.4141 57.2427)" fill="#CCE0FF" stroke="#003A97"/>
<rect x="0.438008" width="3.93064" height="3.93064" transform="matrix(0.438008 -0.898971 0.438008 0.898971 7.36005 63.5113)" fill="#CCE0FF" stroke="#003A97"/>
<rect x="0.438008" width="3.93064" height="3.93064" transform="matrix(0.438008 -0.898971 0.438008 0.898971 13.4684 0.826252)" fill="#CCE0FF" stroke="#003A97"/>
<rect x="0.438008" width="3.93064" height="3.93064" transform="matrix(0.438008 -0.898971 0.438008 0.898971 16.5226 7.09476)" fill="#CCE0FF" stroke="#003A97"/>
<rect x="0.438008" width="3.93064" height="3.93064" transform="matrix(0.438008 -0.898971 0.438008 0.898971 13.4684 13.3633)" fill="#CCE0FF" stroke="#003A97"/>
<rect x="0.438008" width="3.93064" height="3.93064" transform="matrix(0.438008 -0.898971 0.438008 0.898971 16.5226 19.6317)" fill="#CCE0FF" stroke="#003A97"/>
<rect x="0.438008" width="3.93064" height="3.93064" transform="matrix(0.438008 -0.898971 0.438008 0.898971 13.4684 25.9002)" fill="#CCE0FF" stroke="#003A97"/>
<rect x="0.438008" width="3.93064" height="3.93064" transform="matrix(0.438008 -0.898971 0.438008 0.898971 16.5226 32.1688)" fill="#CCE0FF" stroke="#003A97"/>
<rect x="0.438008" width="3.93064" height="3.93064" transform="matrix(0.438008 -0.898971 0.438008 0.898971 13.4684 38.4373)" fill="#CCE0FF" stroke="#003A97"/>
<rect x="0.438008" width="3.93064" height="3.93064" transform="matrix(0.438008 -0.898971 0.438008 0.898971 16.5226 44.7058)" fill="#CCE0FF" stroke="#003A97"/>
<rect x="0.438008" width="3.93064" height="3.93064" transform="matrix(0.438008 -0.898971 0.438008 0.898971 13.4684 50.9742)" fill="#CCE0FF" stroke="#003A97"/>
<rect x="0.438008" width="3.93064" height="3.93064" transform="matrix(0.438008 -0.898971 0.438008 0.898971 16.5226 57.2427)" fill="#CCE0FF" stroke="#003A97"/>
<rect x="0.438008" width="3.93064" height="3.93064" transform="matrix(0.438008 -0.898971 0.438008 0.898971 13.4684 63.5113)" fill="#CCE0FF" stroke="#003A97"/>
</g>
<rect x="0.534302" y="1.03696" width="41.7219" height="61.1409" stroke="#003A97"/>
</svg>
