<svg width="103" height="94" viewBox="0 0 103 94" fill="none" xmlns="http://www.w3.org/2000/svg">
<rect x="-0.366998" y="30.9703" width="55.4023" height="73.2031" rx="5" transform="rotate(-30 -0.366998 30.9703)" fill="white" stroke="black" stroke-width="2"/>
<rect x="8.63165" y="32.2723" width="41.7219" height="61.1409" transform="rotate(-30 8.63165 32.2723)" fill="#99C0FF" stroke="#003A97"/>
<mask id="mask0_1_677" style="mask-type:alpha" maskUnits="userSpaceOnUse" x="7" y="10" width="70" height="76">
<rect x="7.94864" y="32.0893" width="42.7219" height="62.1409" transform="rotate(-30 7.94864 32.0893)" fill="#001433"/>
</mask>
<g mask="url(#mask0_1_677)">
<rect x="0.256106" y="32.1097" width="6.76761" height="6.76761" transform="rotate(-75 0.256106 32.1097)" fill="#CCE0FF" stroke="#003A97"/>
<rect x="0.256106" y="32.1097" width="6.76761" height="6.76761" transform="rotate(-75 0.256106 32.1097)" fill="#CCE0FF" stroke="#003A97"/>
<rect x="51.2285" y="11.65" width="6.76761" height="6.76761" transform="rotate(-75 51.2285 11.65)" fill="#CCE0FF" stroke="#003A97"/>
<rect x="51.2285" y="11.65" width="6.76761" height="6.76761" transform="rotate(-75 51.2285 11.65)" fill="#CCE0FF" stroke="#003A97"/>
<rect x="8.02372" y="45.5636" width="6.76761" height="6.76761" transform="rotate(-75 8.02372 45.5636)" fill="#CCE0FF" stroke="#003A97"/>
<rect x="8.02372" y="45.5636" width="6.76761" height="6.76761" transform="rotate(-75 8.02372 45.5636)" fill="#CCE0FF" stroke="#003A97"/>
<rect x="5.18057" y="56.1743" width="6.76761" height="6.76761" transform="rotate(-75 5.18057 56.1743)" fill="#CCE0FF" stroke="#003A97"/>
<rect x="5.18057" y="56.1743" width="6.76761" height="6.76761" transform="rotate(-75 5.18057 56.1743)" fill="#CCE0FF" stroke="#003A97"/>
<rect x="58.9962" y="25.1039" width="6.76761" height="6.76761" transform="rotate(-75 58.9962 25.1039)" fill="#CCE0FF" stroke="#003A97"/>
<rect x="58.9962" y="25.1039" width="6.76761" height="6.76761" transform="rotate(-75 58.9962 25.1039)" fill="#CCE0FF" stroke="#003A97"/>
<rect x="15.7913" y="59.0175" width="6.76761" height="6.76761" transform="rotate(-75 15.7913 59.0175)" fill="#CCE0FF" stroke="#003A97"/>
<rect x="15.7913" y="59.0175" width="6.76761" height="6.76761" transform="rotate(-75 15.7913 59.0175)" fill="#CCE0FF" stroke="#003A97"/>
<rect x="12.9482" y="69.6282" width="6.76761" height="6.76761" transform="rotate(-75 12.9482 69.6282)" fill="#CCE0FF" stroke="#003A97"/>
<rect x="12.9482" y="69.6282" width="6.76761" height="6.76761" transform="rotate(-75 12.9482 69.6282)" fill="#CCE0FF" stroke="#003A97"/>
<rect x="66.7638" y="38.5578" width="6.76761" height="6.76761" transform="rotate(-75 66.7638 38.5578)" fill="#CCE0FF" stroke="#003A97"/>
<rect x="66.7638" y="38.5578" width="6.76761" height="6.76761" transform="rotate(-75 66.7638 38.5578)" fill="#CCE0FF" stroke="#003A97"/>
<rect x="23.5589" y="72.4714" width="6.76761" height="6.76761" transform="rotate(-75 23.5589 72.4714)" fill="#CCE0FF" stroke="#003A97"/>
<rect x="23.5589" y="72.4714" width="6.76761" height="6.76761" transform="rotate(-75 23.5589 72.4714)" fill="#CCE0FF" stroke="#003A97"/>
<rect x="20.7158" y="83.0821" width="6.76761" height="6.76761" transform="rotate(-75 20.7158 83.0821)" fill="#CCE0FF" stroke="#003A97"/>
<rect x="20.7158" y="83.0821" width="6.76761" height="6.76761" transform="rotate(-75 20.7158 83.0821)" fill="#CCE0FF" stroke="#003A97"/>
<rect x="74.5314" y="52.0117" width="6.76761" height="6.76761" transform="rotate(-75 74.5314 52.0117)" fill="#CCE0FF" stroke="#003A97"/>
<rect x="74.5314" y="52.0117" width="6.76761" height="6.76761" transform="rotate(-75 74.5314 52.0117)" fill="#CCE0FF" stroke="#003A97"/>
<rect x="31.3266" y="85.9253" width="6.76761" height="6.76761" transform="rotate(-75 31.3266 85.9253)" fill="#CCE0FF" stroke="#003A97"/>
<rect x="31.3266" y="85.9253" width="6.76761" height="6.76761" transform="rotate(-75 31.3266 85.9253)" fill="#CCE0FF" stroke="#003A97"/>
<rect x="3.09925" y="21.4989" width="6.76761" height="6.76761" transform="rotate(-75 3.09925 21.4989)" fill="#CCE0FF" stroke="#003A97"/>
<rect x="3.09925" y="21.4989" width="6.76761" height="6.76761" transform="rotate(-75 3.09925 21.4989)" fill="#CCE0FF" stroke="#003A97"/>
<rect x="13.71" y="24.3421" width="6.76761" height="6.76761" transform="rotate(-75 13.71 24.3421)" fill="#CCE0FF" stroke="#003A97"/>
<rect x="13.71" y="24.3421" width="6.76761" height="6.76761" transform="rotate(-75 13.71 24.3421)" fill="#CCE0FF" stroke="#003A97"/>
<rect x="10.8669" y="34.9528" width="6.76761" height="6.76761" transform="rotate(-75 10.8669 34.9528)" fill="#CCE0FF" stroke="#003A97"/>
<rect x="10.8669" y="34.9528" width="6.76761" height="6.76761" transform="rotate(-75 10.8669 34.9528)" fill="#CCE0FF" stroke="#003A97"/>
<rect x="21.4776" y="37.796" width="6.76761" height="6.76761" transform="rotate(-75 21.4776 37.796)" fill="#CCE0FF" stroke="#003A97"/>
<rect x="21.4776" y="37.796" width="6.76761" height="6.76761" transform="rotate(-75 21.4776 37.796)" fill="#CCE0FF" stroke="#003A97"/>
<rect x="18.6345" y="48.4067" width="6.76761" height="6.76761" transform="rotate(-75 18.6345 48.4067)" fill="#CCE0FF" stroke="#003A97"/>
<rect x="18.6345" y="48.4067" width="6.76761" height="6.76761" transform="rotate(-75 18.6345 48.4067)" fill="#CCE0FF" stroke="#003A97"/>
<rect x="29.2452" y="51.2499" width="6.76761" height="6.76761" transform="rotate(-75 29.2452 51.2499)" fill="#CCE0FF" stroke="#003A97"/>
<rect x="29.2452" y="51.2499" width="6.76761" height="6.76761" transform="rotate(-75 29.2452 51.2499)" fill="#CCE0FF" stroke="#003A97"/>
<rect x="26.4021" y="61.8606" width="6.76761" height="6.76761" transform="rotate(-75 26.4021 61.8606)" fill="#CCE0FF" stroke="#003A97"/>
<rect x="26.4021" y="61.8606" width="6.76761" height="6.76761" transform="rotate(-75 26.4021 61.8606)" fill="#CCE0FF" stroke="#003A97"/>
<rect x="37.0128" y="64.7037" width="6.76761" height="6.76761" transform="rotate(-75 37.0128 64.7037)" fill="#CCE0FF" stroke="#003A97"/>
<rect x="37.0128" y="64.7037" width="6.76761" height="6.76761" transform="rotate(-75 37.0128 64.7037)" fill="#CCE0FF" stroke="#003A97"/>
<rect x="34.1697" y="75.3145" width="6.76761" height="6.76761" transform="rotate(-75 34.1697 75.3145)" fill="#CCE0FF" stroke="#003A97"/>
<rect x="34.1697" y="75.3145" width="6.76761" height="6.76761" transform="rotate(-75 34.1697 75.3145)" fill="#CCE0FF" stroke="#003A97"/>
<rect x="44.7804" y="78.1576" width="6.76761" height="6.76761" transform="rotate(-75 44.7804 78.1576)" fill="#CCE0FF" stroke="#003A97"/>
<rect x="44.7804" y="78.1576" width="6.76761" height="6.76761" transform="rotate(-75 44.7804 78.1576)" fill="#CCE0FF" stroke="#003A97"/>
<rect x="41.9373" y="88.7684" width="6.76761" height="6.76761" transform="rotate(-75 41.9373 88.7684)" fill="#CCE0FF" stroke="#003A97"/>
<rect x="41.9373" y="88.7684" width="6.76761" height="6.76761" transform="rotate(-75 41.9373 88.7684)" fill="#CCE0FF" stroke="#003A97"/>
<rect x="16.5531" y="13.7313" width="6.76761" height="6.76761" transform="rotate(-75 16.5531 13.7313)" fill="#CCE0FF" stroke="#003A97"/>
<rect x="16.5531" y="13.7313" width="6.76761" height="6.76761" transform="rotate(-75 16.5531 13.7313)" fill="#CCE0FF" stroke="#003A97"/>
<rect x="27.1639" y="16.5745" width="6.76761" height="6.76761" transform="rotate(-75 27.1639 16.5745)" fill="#CCE0FF" stroke="#003A97"/>
<rect x="27.1639" y="16.5745" width="6.76761" height="6.76761" transform="rotate(-75 27.1639 16.5745)" fill="#CCE0FF" stroke="#003A97"/>
<rect x="24.3208" y="27.1852" width="6.76761" height="6.76761" transform="rotate(-75 24.3208 27.1852)" fill="#CCE0FF" stroke="#003A97"/>
<rect x="24.3208" y="27.1852" width="6.76761" height="6.76761" transform="rotate(-75 24.3208 27.1852)" fill="#CCE0FF" stroke="#003A97"/>
<rect x="34.9315" y="30.0284" width="6.76761" height="6.76761" transform="rotate(-75 34.9315 30.0284)" fill="#CCE0FF" stroke="#003A97"/>
<rect x="34.9315" y="30.0284" width="6.76761" height="6.76761" transform="rotate(-75 34.9315 30.0284)" fill="#CCE0FF" stroke="#003A97"/>
<rect x="32.0884" y="40.6391" width="6.76761" height="6.76761" transform="rotate(-75 32.0884 40.6391)" fill="#CCE0FF" stroke="#003A97"/>
<rect x="32.0884" y="40.6391" width="6.76761" height="6.76761" transform="rotate(-75 32.0884 40.6391)" fill="#CCE0FF" stroke="#003A97"/>
<rect x="42.6991" y="43.4823" width="6.76761" height="6.76761" transform="rotate(-75 42.6991 43.4823)" fill="#CCE0FF" stroke="#003A97"/>
<rect x="42.6991" y="43.4823" width="6.76761" height="6.76761" transform="rotate(-75 42.6991 43.4823)" fill="#CCE0FF" stroke="#003A97"/>
<rect x="39.856" y="54.093" width="6.76761" height="6.76761" transform="rotate(-75 39.856 54.093)" fill="#CCE0FF" stroke="#003A97"/>
<rect x="39.856" y="54.093" width="6.76761" height="6.76761" transform="rotate(-75 39.856 54.093)" fill="#CCE0FF" stroke="#003A97"/>
<rect x="50.4667" y="56.9361" width="6.76761" height="6.76761" transform="rotate(-75 50.4667 56.9361)" fill="#CCE0FF" stroke="#003A97"/>
<rect x="50.4667" y="56.9361" width="6.76761" height="6.76761" transform="rotate(-75 50.4667 56.9361)" fill="#CCE0FF" stroke="#003A97"/>
<rect x="47.6236" y="67.5469" width="6.76761" height="6.76761" transform="rotate(-75 47.6236 67.5469)" fill="#CCE0FF" stroke="#003A97"/>
<rect x="47.6236" y="67.5469" width="6.76761" height="6.76761" transform="rotate(-75 47.6236 67.5469)" fill="#CCE0FF" stroke="#003A97"/>
<rect x="58.2343" y="70.39" width="6.76761" height="6.76761" transform="rotate(-75 58.2343 70.39)" fill="#CCE0FF" stroke="#003A97"/>
<rect x="58.2343" y="70.39" width="6.76761" height="6.76761" transform="rotate(-75 58.2343 70.39)" fill="#CCE0FF" stroke="#003A97"/>
<rect x="55.3912" y="81.0008" width="6.76761" height="6.76761" transform="rotate(-75 55.3912 81.0008)" fill="#CCE0FF" stroke="#003A97"/>
<rect x="55.3912" y="81.0008" width="6.76761" height="6.76761" transform="rotate(-75 55.3912 81.0008)" fill="#CCE0FF" stroke="#003A97"/>
<rect x="40.6178" y="8.80685" width="6.76761" height="6.76761" transform="rotate(-75 40.6178 8.80685)" fill="#CCE0FF" stroke="#003A97"/>
<rect x="40.6178" y="8.80685" width="6.76761" height="6.76761" transform="rotate(-75 40.6178 8.80685)" fill="#CCE0FF" stroke="#003A97"/>
<rect x="37.7746" y="19.4176" width="6.76761" height="6.76761" transform="rotate(-75 37.7746 19.4176)" fill="#CCE0FF" stroke="#003A97"/>
<rect x="37.7746" y="19.4176" width="6.76761" height="6.76761" transform="rotate(-75 37.7746 19.4176)" fill="#CCE0FF" stroke="#003A97"/>
<rect x="48.3854" y="22.2608" width="6.76761" height="6.76761" transform="rotate(-75 48.3854 22.2608)" fill="#CCE0FF" stroke="#003A97"/>
<rect x="48.3854" y="22.2608" width="6.76761" height="6.76761" transform="rotate(-75 48.3854 22.2608)" fill="#CCE0FF" stroke="#003A97"/>
<rect x="45.5423" y="32.8715" width="6.76761" height="6.76761" transform="rotate(-75 45.5423 32.8715)" fill="#CCE0FF" stroke="#003A97"/>
<rect x="45.5423" y="32.8715" width="6.76761" height="6.76761" transform="rotate(-75 45.5423 32.8715)" fill="#CCE0FF" stroke="#003A97"/>
<rect x="56.153" y="35.7146" width="6.76761" height="6.76761" transform="rotate(-75 56.153 35.7146)" fill="#CCE0FF" stroke="#003A97"/>
<rect x="56.153" y="35.7146" width="6.76761" height="6.76761" transform="rotate(-75 56.153 35.7146)" fill="#CCE0FF" stroke="#003A97"/>
<rect x="53.3099" y="46.3254" width="6.76761" height="6.76761" transform="rotate(-75 53.3099 46.3254)" fill="#CCE0FF" stroke="#003A97"/>
<rect x="53.3099" y="46.3254" width="6.76761" height="6.76761" transform="rotate(-75 53.3099 46.3254)" fill="#CCE0FF" stroke="#003A97"/>
<rect x="63.9206" y="49.1685" width="6.76761" height="6.76761" transform="rotate(-75 63.9206 49.1685)" fill="#CCE0FF" stroke="#003A97"/>
<rect x="63.9206" y="49.1685" width="6.76761" height="6.76761" transform="rotate(-75 63.9206 49.1685)" fill="#CCE0FF" stroke="#003A97"/>
<rect x="61.0775" y="59.7793" width="6.76761" height="6.76761" transform="rotate(-75 61.0775 59.7793)" fill="#CCE0FF" stroke="#003A97"/>
<rect x="61.0775" y="59.7793" width="6.76761" height="6.76761" transform="rotate(-75 61.0775 59.7793)" fill="#CCE0FF" stroke="#003A97"/>
<rect x="71.6882" y="62.6224" width="6.76761" height="6.76761" transform="rotate(-75 71.6882 62.6224)" fill="#CCE0FF" stroke="#003A97"/>
<rect x="71.6882" y="62.6224" width="6.76761" height="6.76761" transform="rotate(-75 71.6882 62.6224)" fill="#CCE0FF" stroke="#003A97"/>
<rect x="68.8451" y="73.2332" width="6.76761" height="6.76761" transform="rotate(-75 68.8451 73.2332)" fill="#CCE0FF" stroke="#003A97"/>
<rect x="68.8451" y="73.2332" width="6.76761" height="6.76761" transform="rotate(-75 68.8451 73.2332)" fill="#CCE0FF" stroke="#003A97"/>
</g>
<rect x="14.0551" y="20.3376" width="55.4023" height="73.2031" rx="5" transform="rotate(-20 14.0551 20.3376)" fill="white" stroke="black" stroke-width="2"/>
<rect x="22.691" y="23.1824" width="41.7219" height="61.1409" transform="rotate(-20 22.691 23.1824)" fill="#99C0FF" stroke="#003A97"/>
<mask id="mask1_1_677" style="mask-type:alpha" maskUnits="userSpaceOnUse" x="22" y="8" width="62" height="74">
<rect x="22.0501" y="22.8836" width="42.7219" height="62.1409" transform="rotate(-20 22.0501 22.8836)" fill="#001433"/>
</mask>
<g mask="url(#mask1_1_677)">
<rect x="14.4709" y="21.5679" width="6.76761" height="6.76761" transform="rotate(-65 14.4709 21.5679)" fill="#CCE0FF" stroke="#003A97"/>
<rect x="14.4709" y="21.5679" width="6.76761" height="6.76761" transform="rotate(-65 14.4709 21.5679)" fill="#CCE0FF" stroke="#003A97"/>
<rect x="68.2217" y="10.2703" width="6.76761" height="6.76761" transform="rotate(-65 68.2217 10.2703)" fill="#CCE0FF" stroke="#003A97"/>
<rect x="68.2217" y="10.2703" width="6.76761" height="6.76761" transform="rotate(-65 68.2217 10.2703)" fill="#CCE0FF" stroke="#003A97"/>
<rect x="19.7843" y="36.1662" width="6.76761" height="6.76761" transform="rotate(-65 19.7843 36.1662)" fill="#CCE0FF" stroke="#003A97"/>
<rect x="19.7843" y="36.1662" width="6.76761" height="6.76761" transform="rotate(-65 19.7843 36.1662)" fill="#CCE0FF" stroke="#003A97"/>
<rect x="15.1418" y="46.122" width="6.76761" height="6.76761" transform="rotate(-65 15.1418 46.122)" fill="#CCE0FF" stroke="#003A97"/>
<rect x="15.1418" y="46.122" width="6.76761" height="6.76761" transform="rotate(-65 15.1418 46.122)" fill="#CCE0FF" stroke="#003A97"/>
<rect x="73.5351" y="24.8686" width="6.76761" height="6.76761" transform="rotate(-65 73.5351 24.8686)" fill="#CCE0FF" stroke="#003A97"/>
<rect x="73.5351" y="24.8686" width="6.76761" height="6.76761" transform="rotate(-65 73.5351 24.8686)" fill="#CCE0FF" stroke="#003A97"/>
<rect x="25.0976" y="50.7645" width="6.76761" height="6.76761" transform="rotate(-65 25.0976 50.7645)" fill="#CCE0FF" stroke="#003A97"/>
<rect x="25.0976" y="50.7645" width="6.76761" height="6.76761" transform="rotate(-65 25.0976 50.7645)" fill="#CCE0FF" stroke="#003A97"/>
<rect x="20.4551" y="60.7204" width="6.76761" height="6.76761" transform="rotate(-65 20.4551 60.7204)" fill="#CCE0FF" stroke="#003A97"/>
<rect x="20.4551" y="60.7204" width="6.76761" height="6.76761" transform="rotate(-65 20.4551 60.7204)" fill="#CCE0FF" stroke="#003A97"/>
<rect x="78.8484" y="39.4669" width="6.76761" height="6.76761" transform="rotate(-65 78.8484 39.4669)" fill="#CCE0FF" stroke="#003A97"/>
<rect x="78.8484" y="39.4669" width="6.76761" height="6.76761" transform="rotate(-65 78.8484 39.4669)" fill="#CCE0FF" stroke="#003A97"/>
<rect x="30.411" y="65.3628" width="6.76761" height="6.76761" transform="rotate(-65 30.411 65.3628)" fill="#CCE0FF" stroke="#003A97"/>
<rect x="30.411" y="65.3628" width="6.76761" height="6.76761" transform="rotate(-65 30.411 65.3628)" fill="#CCE0FF" stroke="#003A97"/>
<rect x="25.7685" y="75.3187" width="6.76761" height="6.76761" transform="rotate(-65 25.7685 75.3187)" fill="#CCE0FF" stroke="#003A97"/>
<rect x="25.7685" y="75.3187" width="6.76761" height="6.76761" transform="rotate(-65 25.7685 75.3187)" fill="#CCE0FF" stroke="#003A97"/>
<rect x="35.7243" y="79.9612" width="6.76761" height="6.76761" transform="rotate(-65 35.7243 79.9612)" fill="#CCE0FF" stroke="#003A97"/>
<rect x="35.7243" y="79.9612" width="6.76761" height="6.76761" transform="rotate(-65 35.7243 79.9612)" fill="#CCE0FF" stroke="#003A97"/>
<rect x="19.1134" y="11.612" width="6.76761" height="6.76761" transform="rotate(-65 19.1134 11.612)" fill="#CCE0FF" stroke="#003A97"/>
<rect x="19.1134" y="11.612" width="6.76761" height="6.76761" transform="rotate(-65 19.1134 11.612)" fill="#CCE0FF" stroke="#003A97"/>
<rect x="29.0692" y="16.2545" width="6.76761" height="6.76761" transform="rotate(-65 29.0692 16.2545)" fill="#CCE0FF" stroke="#003A97"/>
<rect x="29.0692" y="16.2545" width="6.76761" height="6.76761" transform="rotate(-65 29.0692 16.2545)" fill="#CCE0FF" stroke="#003A97"/>
<rect x="24.4267" y="26.2103" width="6.76761" height="6.76761" transform="rotate(-65 24.4267 26.2103)" fill="#CCE0FF" stroke="#003A97"/>
<rect x="24.4267" y="26.2103" width="6.76761" height="6.76761" transform="rotate(-65 24.4267 26.2103)" fill="#CCE0FF" stroke="#003A97"/>
<rect x="34.3826" y="30.8528" width="6.76761" height="6.76761" transform="rotate(-65 34.3826 30.8528)" fill="#CCE0FF" stroke="#003A97"/>
<rect x="34.3826" y="30.8528" width="6.76761" height="6.76761" transform="rotate(-65 34.3826 30.8528)" fill="#CCE0FF" stroke="#003A97"/>
<rect x="29.7401" y="40.8087" width="6.76761" height="6.76761" transform="rotate(-65 29.7401 40.8087)" fill="#CCE0FF" stroke="#003A97"/>
<rect x="29.7401" y="40.8087" width="6.76761" height="6.76761" transform="rotate(-65 29.7401 40.8087)" fill="#CCE0FF" stroke="#003A97"/>
<rect x="39.6959" y="45.4512" width="6.76761" height="6.76761" transform="rotate(-65 39.6959 45.4512)" fill="#CCE0FF" stroke="#003A97"/>
<rect x="39.6959" y="45.4512" width="6.76761" height="6.76761" transform="rotate(-65 39.6959 45.4512)" fill="#CCE0FF" stroke="#003A97"/>
<rect x="35.0534" y="55.407" width="6.76761" height="6.76761" transform="rotate(-65 35.0534 55.407)" fill="#CCE0FF" stroke="#003A97"/>
<rect x="35.0534" y="55.407" width="6.76761" height="6.76761" transform="rotate(-65 35.0534 55.407)" fill="#CCE0FF" stroke="#003A97"/>
<rect x="45.0093" y="60.0495" width="6.76761" height="6.76761" transform="rotate(-65 45.0093 60.0495)" fill="#CCE0FF" stroke="#003A97"/>
<rect x="45.0093" y="60.0495" width="6.76761" height="6.76761" transform="rotate(-65 45.0093 60.0495)" fill="#CCE0FF" stroke="#003A97"/>
<rect x="40.3668" y="70.0053" width="6.76761" height="6.76761" transform="rotate(-65 40.3668 70.0053)" fill="#CCE0FF" stroke="#003A97"/>
<rect x="40.3668" y="70.0053" width="6.76761" height="6.76761" transform="rotate(-65 40.3668 70.0053)" fill="#CCE0FF" stroke="#003A97"/>
<rect x="50.3227" y="74.6478" width="6.76761" height="6.76761" transform="rotate(-65 50.3227 74.6478)" fill="#CCE0FF" stroke="#003A97"/>
<rect x="50.3227" y="74.6478" width="6.76761" height="6.76761" transform="rotate(-65 50.3227 74.6478)" fill="#CCE0FF" stroke="#003A97"/>
<rect x="45.6802" y="84.6037" width="6.76761" height="6.76761" transform="rotate(-65 45.6802 84.6037)" fill="#CCE0FF" stroke="#003A97"/>
<rect x="45.6802" y="84.6037" width="6.76761" height="6.76761" transform="rotate(-65 45.6802 84.6037)" fill="#CCE0FF" stroke="#003A97"/>
<rect x="33.7117" y="6.29864" width="6.76761" height="6.76761" transform="rotate(-65 33.7117 6.29864)" fill="#CCE0FF" stroke="#003A97"/>
<rect x="33.7117" y="6.29864" width="6.76761" height="6.76761" transform="rotate(-65 33.7117 6.29864)" fill="#CCE0FF" stroke="#003A97"/>
<rect x="43.6676" y="10.9411" width="6.76761" height="6.76761" transform="rotate(-65 43.6676 10.9411)" fill="#CCE0FF" stroke="#003A97"/>
<rect x="43.6676" y="10.9411" width="6.76761" height="6.76761" transform="rotate(-65 43.6676 10.9411)" fill="#CCE0FF" stroke="#003A97"/>
<rect x="39.0251" y="20.897" width="6.76761" height="6.76761" transform="rotate(-65 39.0251 20.897)" fill="#CCE0FF" stroke="#003A97"/>
<rect x="39.0251" y="20.897" width="6.76761" height="6.76761" transform="rotate(-65 39.0251 20.897)" fill="#CCE0FF" stroke="#003A97"/>
<rect x="48.9809" y="25.5395" width="6.76761" height="6.76761" transform="rotate(-65 48.9809 25.5395)" fill="#CCE0FF" stroke="#003A97"/>
<rect x="48.9809" y="25.5395" width="6.76761" height="6.76761" transform="rotate(-65 48.9809 25.5395)" fill="#CCE0FF" stroke="#003A97"/>
<rect x="44.3384" y="35.4953" width="6.76761" height="6.76761" transform="rotate(-65 44.3384 35.4953)" fill="#CCE0FF" stroke="#003A97"/>
<rect x="44.3384" y="35.4953" width="6.76761" height="6.76761" transform="rotate(-65 44.3384 35.4953)" fill="#CCE0FF" stroke="#003A97"/>
<rect x="54.2943" y="40.1378" width="6.76761" height="6.76761" transform="rotate(-65 54.2943 40.1378)" fill="#CCE0FF" stroke="#003A97"/>
<rect x="54.2943" y="40.1378" width="6.76761" height="6.76761" transform="rotate(-65 54.2943 40.1378)" fill="#CCE0FF" stroke="#003A97"/>
<rect x="49.6518" y="50.0936" width="6.76761" height="6.76761" transform="rotate(-65 49.6518 50.0936)" fill="#CCE0FF" stroke="#003A97"/>
<rect x="49.6518" y="50.0936" width="6.76761" height="6.76761" transform="rotate(-65 49.6518 50.0936)" fill="#CCE0FF" stroke="#003A97"/>
<rect x="59.6076" y="54.7361" width="6.76761" height="6.76761" transform="rotate(-65 59.6076 54.7361)" fill="#CCE0FF" stroke="#003A97"/>
<rect x="59.6076" y="54.7361" width="6.76761" height="6.76761" transform="rotate(-65 59.6076 54.7361)" fill="#CCE0FF" stroke="#003A97"/>
<rect x="54.9651" y="64.692" width="6.76761" height="6.76761" transform="rotate(-65 54.9651 64.692)" fill="#CCE0FF" stroke="#003A97"/>
<rect x="54.9651" y="64.692" width="6.76761" height="6.76761" transform="rotate(-65 54.9651 64.692)" fill="#CCE0FF" stroke="#003A97"/>
<rect x="64.921" y="69.3345" width="6.76761" height="6.76761" transform="rotate(-65 64.921 69.3345)" fill="#CCE0FF" stroke="#003A97"/>
<rect x="64.921" y="69.3345" width="6.76761" height="6.76761" transform="rotate(-65 64.921 69.3345)" fill="#CCE0FF" stroke="#003A97"/>
<rect x="60.2785" y="79.2903" width="6.76761" height="6.76761" transform="rotate(-65 60.2785 79.2903)" fill="#CCE0FF" stroke="#003A97"/>
<rect x="60.2785" y="79.2903" width="6.76761" height="6.76761" transform="rotate(-65 60.2785 79.2903)" fill="#CCE0FF" stroke="#003A97"/>
<rect x="58.2659" y="5.62778" width="6.76761" height="6.76761" transform="rotate(-65 58.2659 5.62778)" fill="#CCE0FF" stroke="#003A97"/>
<rect x="58.2659" y="5.62778" width="6.76761" height="6.76761" transform="rotate(-65 58.2659 5.62778)" fill="#CCE0FF" stroke="#003A97"/>
<rect x="53.6234" y="15.5836" width="6.76761" height="6.76761" transform="rotate(-65 53.6234 15.5836)" fill="#CCE0FF" stroke="#003A97"/>
<rect x="53.6234" y="15.5836" width="6.76761" height="6.76761" transform="rotate(-65 53.6234 15.5836)" fill="#CCE0FF" stroke="#003A97"/>
<rect x="63.5792" y="20.2261" width="6.76761" height="6.76761" transform="rotate(-65 63.5792 20.2261)" fill="#CCE0FF" stroke="#003A97"/>
<rect x="63.5792" y="20.2261" width="6.76761" height="6.76761" transform="rotate(-65 63.5792 20.2261)" fill="#CCE0FF" stroke="#003A97"/>
<rect x="58.9368" y="30.182" width="6.76761" height="6.76761" transform="rotate(-65 58.9368 30.182)" fill="#CCE0FF" stroke="#003A97"/>
<rect x="58.9368" y="30.182" width="6.76761" height="6.76761" transform="rotate(-65 58.9368 30.182)" fill="#CCE0FF" stroke="#003A97"/>
<rect x="68.8926" y="34.8244" width="6.76761" height="6.76761" transform="rotate(-65 68.8926 34.8244)" fill="#CCE0FF" stroke="#003A97"/>
<rect x="68.8926" y="34.8244" width="6.76761" height="6.76761" transform="rotate(-65 68.8926 34.8244)" fill="#CCE0FF" stroke="#003A97"/>
<rect x="64.2501" y="44.7803" width="6.76761" height="6.76761" transform="rotate(-65 64.2501 44.7803)" fill="#CCE0FF" stroke="#003A97"/>
<rect x="64.2501" y="44.7803" width="6.76761" height="6.76761" transform="rotate(-65 64.2501 44.7803)" fill="#CCE0FF" stroke="#003A97"/>
<rect x="74.206" y="49.4228" width="6.76761" height="6.76761" transform="rotate(-65 74.206 49.4228)" fill="#CCE0FF" stroke="#003A97"/>
<rect x="74.206" y="49.4228" width="6.76761" height="6.76761" transform="rotate(-65 74.206 49.4228)" fill="#CCE0FF" stroke="#003A97"/>
<rect x="69.5635" y="59.3786" width="6.76761" height="6.76761" transform="rotate(-65 69.5635 59.3786)" fill="#CCE0FF" stroke="#003A97"/>
<rect x="69.5635" y="59.3786" width="6.76761" height="6.76761" transform="rotate(-65 69.5635 59.3786)" fill="#CCE0FF" stroke="#003A97"/>
<rect x="79.5193" y="64.0211" width="6.76761" height="6.76761" transform="rotate(-65 79.5193 64.0211)" fill="#CCE0FF" stroke="#003A97"/>
<rect x="79.5193" y="64.0211" width="6.76761" height="6.76761" transform="rotate(-65 79.5193 64.0211)" fill="#CCE0FF" stroke="#003A97"/>
<rect x="74.8768" y="73.9769" width="6.76761" height="6.76761" transform="rotate(-65 74.8768 73.9769)" fill="#CCE0FF" stroke="#003A97"/>
<rect x="74.8768" y="73.9769" width="6.76761" height="6.76761" transform="rotate(-65 74.8768 73.9769)" fill="#CCE0FF" stroke="#003A97"/>
</g>
<rect x="29.6485" y="10.462" width="55.4023" height="73.2031" rx="5" transform="rotate(-10 29.6485 10.462)" fill="white" stroke="black" stroke-width="2"/>
<rect x="37.6591" y="14.7632" width="41.7219" height="61.1409" transform="rotate(-10 37.6591 14.7632)" fill="#99C0FF" stroke="#003A97"/>
<mask id="mask2_1_677" style="mask-type:alpha" maskUnits="userSpaceOnUse" x="37" y="6" width="53" height="70">
<rect x="37.0799" y="14.3577" width="42.7219" height="62.1409" transform="rotate(-10 37.0799 14.3577)" fill="#001433"/>
</mask>
<g mask="url(#mask2_1_677)">
<rect x="29.8443" y="11.7458" width="6.76761" height="6.76761" transform="rotate(-55 29.8443 11.7458)" fill="#CCE0FF" stroke="#003A97"/>
<rect x="29.8443" y="11.7458" width="6.76761" height="6.76761" transform="rotate(-55 29.8443 11.7458)" fill="#CCE0FF" stroke="#003A97"/>
<rect x="84.7404" y="9.95361" width="6.76761" height="6.76761" transform="rotate(-55 84.7404 9.95361)" fill="#CCE0FF" stroke="#003A97"/>
<rect x="84.7404" y="9.95361" width="6.76761" height="6.76761" transform="rotate(-55 84.7404 9.95361)" fill="#CCE0FF" stroke="#003A97"/>
<rect x="32.542" y="27.045" width="6.76761" height="6.76761" transform="rotate(-55 32.542 27.045)" fill="#CCE0FF" stroke="#003A97"/>
<rect x="32.542" y="27.045" width="6.76761" height="6.76761" transform="rotate(-55 32.542 27.045)" fill="#CCE0FF" stroke="#003A97"/>
<rect x="87.438" y="25.2528" width="6.76761" height="6.76761" transform="rotate(-55 87.438 25.2528)" fill="#CCE0FF" stroke="#003A97"/>
<rect x="87.438" y="25.2528" width="6.76761" height="6.76761" transform="rotate(-55 87.438 25.2528)" fill="#CCE0FF" stroke="#003A97"/>
<rect x="35.2397" y="42.3442" width="6.76761" height="6.76761" transform="rotate(-55 35.2397 42.3442)" fill="#CCE0FF" stroke="#003A97"/>
<rect x="35.2397" y="42.3442" width="6.76761" height="6.76761" transform="rotate(-55 35.2397 42.3442)" fill="#CCE0FF" stroke="#003A97"/>
<rect x="28.9389" y="51.3427" width="6.76761" height="6.76761" transform="rotate(-55 28.9389 51.3427)" fill="#CCE0FF" stroke="#003A97"/>
<rect x="28.9389" y="51.3427" width="6.76761" height="6.76761" transform="rotate(-55 28.9389 51.3427)" fill="#CCE0FF" stroke="#003A97"/>
<rect x="90.1357" y="40.552" width="6.76761" height="6.76761" transform="rotate(-55 90.1357 40.552)" fill="#CCE0FF" stroke="#003A97"/>
<rect x="90.1357" y="40.552" width="6.76761" height="6.76761" transform="rotate(-55 90.1357 40.552)" fill="#CCE0FF" stroke="#003A97"/>
<rect x="37.9373" y="57.6434" width="6.76761" height="6.76761" transform="rotate(-55 37.9373 57.6434)" fill="#CCE0FF" stroke="#003A97"/>
<rect x="37.9373" y="57.6434" width="6.76761" height="6.76761" transform="rotate(-55 37.9373 57.6434)" fill="#CCE0FF" stroke="#003A97"/>
<rect x="31.6365" y="66.6419" width="6.76761" height="6.76761" transform="rotate(-55 31.6365 66.6419)" fill="#CCE0FF" stroke="#003A97"/>
<rect x="31.6365" y="66.6419" width="6.76761" height="6.76761" transform="rotate(-55 31.6365 66.6419)" fill="#CCE0FF" stroke="#003A97"/>
<rect x="40.635" y="72.9426" width="6.76761" height="6.76761" transform="rotate(-55 40.635 72.9426)" fill="#CCE0FF" stroke="#003A97"/>
<rect x="40.635" y="72.9426" width="6.76761" height="6.76761" transform="rotate(-55 40.635 72.9426)" fill="#CCE0FF" stroke="#003A97"/>
<rect x="36.1451" y="2.7474" width="6.76761" height="6.76761" transform="rotate(-55 36.1451 2.7474)" fill="#CCE0FF" stroke="#003A97"/>
<rect x="36.1451" y="2.7474" width="6.76761" height="6.76761" transform="rotate(-55 36.1451 2.7474)" fill="#CCE0FF" stroke="#003A97"/>
<rect x="45.1435" y="9.04816" width="6.76761" height="6.76761" transform="rotate(-55 45.1435 9.04816)" fill="#CCE0FF" stroke="#003A97"/>
<rect x="45.1435" y="9.04816" width="6.76761" height="6.76761" transform="rotate(-55 45.1435 9.04816)" fill="#CCE0FF" stroke="#003A97"/>
<rect x="38.8428" y="18.0466" width="6.76761" height="6.76761" transform="rotate(-55 38.8428 18.0466)" fill="#CCE0FF" stroke="#003A97"/>
<rect x="38.8428" y="18.0466" width="6.76761" height="6.76761" transform="rotate(-55 38.8428 18.0466)" fill="#CCE0FF" stroke="#003A97"/>
<rect x="47.8412" y="24.3474" width="6.76761" height="6.76761" transform="rotate(-55 47.8412 24.3474)" fill="#CCE0FF" stroke="#003A97"/>
<rect x="47.8412" y="24.3474" width="6.76761" height="6.76761" transform="rotate(-55 47.8412 24.3474)" fill="#CCE0FF" stroke="#003A97"/>
<rect x="41.5404" y="33.3458" width="6.76761" height="6.76761" transform="rotate(-55 41.5404 33.3458)" fill="#CCE0FF" stroke="#003A97"/>
<rect x="41.5404" y="33.3458" width="6.76761" height="6.76761" transform="rotate(-55 41.5404 33.3458)" fill="#CCE0FF" stroke="#003A97"/>
<rect x="50.5389" y="39.6466" width="6.76761" height="6.76761" transform="rotate(-55 50.5389 39.6466)" fill="#CCE0FF" stroke="#003A97"/>
<rect x="50.5389" y="39.6466" width="6.76761" height="6.76761" transform="rotate(-55 50.5389 39.6466)" fill="#CCE0FF" stroke="#003A97"/>
<rect x="44.2381" y="48.645" width="6.76761" height="6.76761" transform="rotate(-55 44.2381 48.645)" fill="#CCE0FF" stroke="#003A97"/>
<rect x="44.2381" y="48.645" width="6.76761" height="6.76761" transform="rotate(-55 44.2381 48.645)" fill="#CCE0FF" stroke="#003A97"/>
<rect x="53.2365" y="54.9458" width="6.76761" height="6.76761" transform="rotate(-55 53.2365 54.9458)" fill="#CCE0FF" stroke="#003A97"/>
<rect x="53.2365" y="54.9458" width="6.76761" height="6.76761" transform="rotate(-55 53.2365 54.9458)" fill="#CCE0FF" stroke="#003A97"/>
<rect x="46.9358" y="63.9442" width="6.76761" height="6.76761" transform="rotate(-55 46.9358 63.9442)" fill="#CCE0FF" stroke="#003A97"/>
<rect x="46.9358" y="63.9442" width="6.76761" height="6.76761" transform="rotate(-55 46.9358 63.9442)" fill="#CCE0FF" stroke="#003A97"/>
<rect x="55.9342" y="70.245" width="6.76761" height="6.76761" transform="rotate(-55 55.9342 70.245)" fill="#CCE0FF" stroke="#003A97"/>
<rect x="55.9342" y="70.245" width="6.76761" height="6.76761" transform="rotate(-55 55.9342 70.245)" fill="#CCE0FF" stroke="#003A97"/>
<rect x="49.6334" y="79.2434" width="6.76761" height="6.76761" transform="rotate(-55 49.6334 79.2434)" fill="#CCE0FF" stroke="#003A97"/>
<rect x="49.6334" y="79.2434" width="6.76761" height="6.76761" transform="rotate(-55 49.6334 79.2434)" fill="#CCE0FF" stroke="#003A97"/>
<rect x="60.4427" y="6.35049" width="6.76761" height="6.76761" transform="rotate(-55 60.4427 6.35049)" fill="#CCE0FF" stroke="#003A97"/>
<rect x="60.4427" y="6.35049" width="6.76761" height="6.76761" transform="rotate(-55 60.4427 6.35049)" fill="#CCE0FF" stroke="#003A97"/>
<rect x="54.142" y="15.3489" width="6.76761" height="6.76761" transform="rotate(-55 54.142 15.3489)" fill="#CCE0FF" stroke="#003A97"/>
<rect x="54.142" y="15.3489" width="6.76761" height="6.76761" transform="rotate(-55 54.142 15.3489)" fill="#CCE0FF" stroke="#003A97"/>
<rect x="63.1404" y="21.6497" width="6.76761" height="6.76761" transform="rotate(-55 63.1404 21.6497)" fill="#CCE0FF" stroke="#003A97"/>
<rect x="63.1404" y="21.6497" width="6.76761" height="6.76761" transform="rotate(-55 63.1404 21.6497)" fill="#CCE0FF" stroke="#003A97"/>
<rect x="56.8396" y="30.6481" width="6.76761" height="6.76761" transform="rotate(-55 56.8396 30.6481)" fill="#CCE0FF" stroke="#003A97"/>
<rect x="56.8396" y="30.6481" width="6.76761" height="6.76761" transform="rotate(-55 56.8396 30.6481)" fill="#CCE0FF" stroke="#003A97"/>
<rect x="65.8381" y="36.9489" width="6.76761" height="6.76761" transform="rotate(-55 65.8381 36.9489)" fill="#CCE0FF" stroke="#003A97"/>
<rect x="65.8381" y="36.9489" width="6.76761" height="6.76761" transform="rotate(-55 65.8381 36.9489)" fill="#CCE0FF" stroke="#003A97"/>
<rect x="59.5373" y="45.9473" width="6.76761" height="6.76761" transform="rotate(-55 59.5373 45.9473)" fill="#CCE0FF" stroke="#003A97"/>
<rect x="59.5373" y="45.9473" width="6.76761" height="6.76761" transform="rotate(-55 59.5373 45.9473)" fill="#CCE0FF" stroke="#003A97"/>
<rect x="68.5357" y="52.2481" width="6.76761" height="6.76761" transform="rotate(-55 68.5357 52.2481)" fill="#CCE0FF" stroke="#003A97"/>
<rect x="68.5357" y="52.2481" width="6.76761" height="6.76761" transform="rotate(-55 68.5357 52.2481)" fill="#CCE0FF" stroke="#003A97"/>
<rect x="62.2349" y="61.2465" width="6.76761" height="6.76761" transform="rotate(-55 62.2349 61.2465)" fill="#CCE0FF" stroke="#003A97"/>
<rect x="62.2349" y="61.2465" width="6.76761" height="6.76761" transform="rotate(-55 62.2349 61.2465)" fill="#CCE0FF" stroke="#003A97"/>
<rect x="71.2334" y="67.5473" width="6.76761" height="6.76761" transform="rotate(-55 71.2334 67.5473)" fill="#CCE0FF" stroke="#003A97"/>
<rect x="71.2334" y="67.5473" width="6.76761" height="6.76761" transform="rotate(-55 71.2334 67.5473)" fill="#CCE0FF" stroke="#003A97"/>
<rect x="64.9326" y="76.5457" width="6.76761" height="6.76761" transform="rotate(-55 64.9326 76.5457)" fill="#CCE0FF" stroke="#003A97"/>
<rect x="64.9326" y="76.5457" width="6.76761" height="6.76761" transform="rotate(-55 64.9326 76.5457)" fill="#CCE0FF" stroke="#003A97"/>
<rect x="75.7419" y="3.65283" width="6.76761" height="6.76761" transform="rotate(-55 75.7419 3.65283)" fill="#CCE0FF" stroke="#003A97"/>
<rect x="75.7419" y="3.65283" width="6.76761" height="6.76761" transform="rotate(-55 75.7419 3.65283)" fill="#CCE0FF" stroke="#003A97"/>
<rect x="69.4412" y="12.6513" width="6.76761" height="6.76761" transform="rotate(-55 69.4412 12.6513)" fill="#CCE0FF" stroke="#003A97"/>
<rect x="69.4412" y="12.6513" width="6.76761" height="6.76761" transform="rotate(-55 69.4412 12.6513)" fill="#CCE0FF" stroke="#003A97"/>
<rect x="78.4396" y="18.952" width="6.76761" height="6.76761" transform="rotate(-55 78.4396 18.952)" fill="#CCE0FF" stroke="#003A97"/>
<rect x="78.4396" y="18.952" width="6.76761" height="6.76761" transform="rotate(-55 78.4396 18.952)" fill="#CCE0FF" stroke="#003A97"/>
<rect x="72.1388" y="27.9505" width="6.76761" height="6.76761" transform="rotate(-55 72.1388 27.9505)" fill="#CCE0FF" stroke="#003A97"/>
<rect x="72.1388" y="27.9505" width="6.76761" height="6.76761" transform="rotate(-55 72.1388 27.9505)" fill="#CCE0FF" stroke="#003A97"/>
<rect x="81.1373" y="34.2513" width="6.76761" height="6.76761" transform="rotate(-55 81.1373 34.2513)" fill="#CCE0FF" stroke="#003A97"/>
<rect x="81.1373" y="34.2513" width="6.76761" height="6.76761" transform="rotate(-55 81.1373 34.2513)" fill="#CCE0FF" stroke="#003A97"/>
<rect x="74.8365" y="43.2497" width="6.76761" height="6.76761" transform="rotate(-55 74.8365 43.2497)" fill="#CCE0FF" stroke="#003A97"/>
<rect x="74.8365" y="43.2497" width="6.76761" height="6.76761" transform="rotate(-55 74.8365 43.2497)" fill="#CCE0FF" stroke="#003A97"/>
<rect x="83.8349" y="49.5504" width="6.76761" height="6.76761" transform="rotate(-55 83.8349 49.5504)" fill="#CCE0FF" stroke="#003A97"/>
<rect x="83.8349" y="49.5504" width="6.76761" height="6.76761" transform="rotate(-55 83.8349 49.5504)" fill="#CCE0FF" stroke="#003A97"/>
<rect x="77.5342" y="58.5489" width="6.76761" height="6.76761" transform="rotate(-55 77.5342 58.5489)" fill="#CCE0FF" stroke="#003A97"/>
<rect x="77.5342" y="58.5489" width="6.76761" height="6.76761" transform="rotate(-55 77.5342 58.5489)" fill="#CCE0FF" stroke="#003A97"/>
<rect x="86.5326" y="64.8497" width="6.76761" height="6.76761" transform="rotate(-55 86.5326 64.8497)" fill="#CCE0FF" stroke="#003A97"/>
<rect x="86.5326" y="64.8497" width="6.76761" height="6.76761" transform="rotate(-55 86.5326 64.8497)" fill="#CCE0FF" stroke="#003A97"/>
<rect x="80.2318" y="73.8481" width="6.76761" height="6.76761" transform="rotate(-55 80.2318 73.8481)" fill="#CCE0FF" stroke="#003A97"/>
<rect x="80.2318" y="73.8481" width="6.76761" height="6.76761" transform="rotate(-55 80.2318 73.8481)" fill="#CCE0FF" stroke="#003A97"/>
</g>
<rect x="46.2639" y="1.53558" width="55.4023" height="73.2031" rx="5" fill="#F8F8F8" stroke="black" stroke-width="2"/>
<path d="M61.208 47.9422H63.3573V28.3796H61.208V21.2502H80.0784C83.7751 21.2502 86.5977 22.0616 88.5464 23.6846C90.495 25.2786 91.4693 27.8724 91.4693 31.4661C91.4693 35.0599 90.495 37.6682 88.5464 39.2912C86.5977 40.8852 83.7751 41.6821 80.0784 41.6821H75.393V47.9422H79.5196V55.0716H61.208V47.9422ZM76.8545 35.5091C78.5166 35.5091 79.3476 34.5817 79.3476 32.7268V31.1618C79.3476 30.2055 79.1327 29.5099 78.7029 29.0752C78.3017 28.6115 77.6856 28.3796 76.8545 28.3796H75.393V35.5091H76.8545Z" fill="white" stroke="#003A97" stroke-width="2"/>
<path d="M52.6041 6.09573C56.1643 6.09573 56.1643 9.29987 56.1643 9.29987C56.1643 9.29987 56.1641 6.09573 59.7244 6.09573C63.2846 6.09573 63.2846 9.29987 63.2846 9.29987C63.2846 9.29987 63.2846 12.504 59.7244 15.7082C56.1641 18.9123 56.1643 22.1164 56.1643 22.1164C56.1643 22.1164 56.1642 18.9123 52.6041 15.7082C49.044 12.504 49.044 9.29987 49.044 9.29987C49.044 9.29987 49.0438 6.09573 52.6041 6.09573Z" fill="#FA2222"/>
<path d="M93.546 71.9586C89.9858 71.9586 89.9858 68.7544 89.9858 68.7544C89.9858 68.7544 89.986 71.9586 86.4257 71.9586C82.8654 71.9586 82.8655 68.7544 82.8655 68.7544C82.8655 68.7544 82.8655 65.5503 86.4257 62.3462C89.9859 59.142 89.9858 55.9379 89.9858 55.9379C89.9858 55.9379 89.9859 59.142 93.546 62.3462C97.1061 65.5503 97.1061 68.7544 97.1061 68.7544C97.1061 68.7544 97.1062 71.9586 93.546 71.9586Z" fill="#FA2222"/>
</svg>
